<svg xmlns="http://www.w3.org/2000/svg" xmlns:xlink="http://www.w3.org/1999/xlink" width="500" zoomAndPan="magnify" viewBox="0 0 375 374.999991" height="500" preserveAspectRatio="xMidYMid meet" version="1.0"><defs><g/><clipPath id="8fe40a5d56"><path d="M 92.328125 93.886719 L 282.828125 93.886719 L 282.828125 281.386719 L 92.328125 281.386719 Z M 92.328125 93.886719 " clip-rule="nonzero"/></clipPath></defs><rect x="-37.5" width="450" fill="#ffffff" y="-37.499999" height="449.999989" fill-opacity="1"/><rect x="-37.5" width="450" fill="#fdf8f0" y="-37.499999" height="449.999989" fill-opacity="1"/><g clip-path="url(#8fe40a5d56)"><path stroke-linecap="butt" transform="matrix(0.369558, 0, 0, 0.369795, 92.328646, 93.902235)" fill="none" stroke-linejoin="miter" d="M 514.485068 264.293766 C 514.485068 390.493371 396.829872 506.002929 270.634078 506.002929 C 144.427714 506.002929 1.002744 390.493371 1.002744 264.293766 C 1.002744 138.094161 144.417144 1.003805 270.634078 1.003805 C 396.840442 1.003805 514.485068 138.094161 514.485068 264.293766 Z M 514.485068 264.293766 " stroke="#000000" stroke-width="2" stroke-opacity="1" stroke-miterlimit="10"/></g><path stroke-linecap="round" transform="matrix(0.75, 0, 0, 0.75, 167.129758, 186.749988)" fill="none" stroke-linejoin="miter" d="M 0.998864 1.000016 L 53.321784 1.000016 " stroke="#000000" stroke-width="2" stroke-opacity="1" stroke-miterlimit="4"/><g fill="#000000" fill-opacity="1"><g transform="translate(163.274995, 168.544626)"><g><path d="M 13.421875 1.171875 C 12.523438 1.171875 11.8125 0.90625 11.28125 0.375 C 10.757812 -0.144531 10.40625 -0.851562 10.21875 -1.75 L 1.75 -36.46875 C 1.632812 -36.820312 1.535156 -37.15625 1.453125 -37.46875 C 1.265625 -38.050781 1.171875 -38.59375 1.171875 -39.09375 C 1.171875 -39.675781 1.375 -40.210938 1.78125 -40.703125 C 2.1875 -41.191406 2.757812 -41.4375 3.5 -41.4375 C 4.082031 -41.4375 4.578125 -41.238281 4.984375 -40.84375 C 5.398438 -40.457031 5.6875 -39.972656 5.84375 -39.390625 L 13.3125 -8.46875 L 13.59375 -8.46875 L 21.015625 -38.515625 C 21.242188 -39.410156 21.609375 -40.117188 22.109375 -40.640625 C 22.617188 -41.171875 23.320312 -41.4375 24.21875 -41.4375 C 25.113281 -41.4375 25.8125 -41.171875 26.3125 -40.640625 C 26.820312 -40.117188 27.191406 -39.410156 27.421875 -38.515625 L 34.84375 -8.46875 L 35.125 -8.46875 L 42.609375 -39.390625 C 42.753906 -39.972656 43.03125 -40.457031 43.4375 -40.84375 C 43.851562 -41.238281 44.351562 -41.4375 44.9375 -41.4375 C 45.675781 -41.4375 46.25 -41.191406 46.65625 -40.703125 C 47.0625 -40.210938 47.265625 -39.675781 47.265625 -39.09375 C 47.265625 -38.863281 47.234375 -38.601562 47.171875 -38.3125 C 47.117188 -38.019531 47.054688 -37.738281 46.984375 -37.46875 C 46.859375 -37.15625 46.757812 -36.820312 46.6875 -36.46875 L 38.21875 -1.75 C 38.03125 -0.851562 37.671875 -0.144531 37.140625 0.375 C 36.617188 0.90625 35.910156 1.171875 35.015625 1.171875 C 34.203125 1.171875 33.507812 0.90625 32.9375 0.375 C 32.375 -0.144531 32 -0.851562 31.8125 -1.75 L 24.390625 -32.09375 L 24.046875 -32.09375 L 16.625 -1.75 C 16.4375 -0.851562 16.054688 -0.144531 15.484375 0.375 C 14.921875 0.90625 14.234375 1.171875 13.421875 1.171875 Z M 13.421875 1.171875 "/></g></g></g><g fill="#000000" fill-opacity="1"><g transform="translate(171.149994, 245.348569)"><g><path d="M 6.71875 0.578125 C 5.976562 0.578125 5.398438 0.335938 4.984375 -0.140625 C 4.578125 -0.628906 4.375 -1.164062 4.375 -1.75 L 4.375 -39.09375 C 4.375 -39.675781 4.578125 -40.210938 4.984375 -40.703125 C 5.398438 -41.191406 5.976562 -41.4375 6.71875 -41.4375 C 7.445312 -41.4375 8.015625 -41.191406 8.421875 -40.703125 C 8.835938 -40.210938 9.046875 -39.675781 9.046875 -39.09375 L 9.046875 -23.34375 L 15.75 -23.34375 L 26.265625 -40.265625 C 26.335938 -40.421875 26.546875 -40.65625 26.890625 -40.96875 C 27.242188 -41.28125 27.710938 -41.4375 28.296875 -41.4375 C 29.035156 -41.4375 29.609375 -41.191406 30.015625 -40.703125 C 30.429688 -40.210938 30.640625 -39.675781 30.640625 -39.09375 C 30.640625 -38.863281 30.609375 -38.648438 30.546875 -38.453125 C 30.492188 -38.265625 30.425781 -38.070312 30.34375 -37.875 C 30.226562 -37.675781 30.132812 -37.5 30.0625 -37.34375 L 19.84375 -21.296875 L 30.9375 -3.5 C 31.007812 -3.34375 31.101562 -3.164062 31.21875 -2.96875 C 31.300781 -2.78125 31.367188 -2.578125 31.421875 -2.359375 C 31.484375 -2.148438 31.515625 -1.945312 31.515625 -1.75 C 31.515625 -1.164062 31.304688 -0.628906 30.890625 -0.140625 C 30.484375 0.335938 29.914062 0.578125 29.1875 0.578125 C 28.59375 0.578125 28.117188 0.421875 27.765625 0.109375 C 27.421875 -0.191406 27.210938 -0.421875 27.140625 -0.578125 L 15.75 -18.96875 L 9.046875 -18.96875 L 9.046875 -1.75 C 9.046875 -1.164062 8.835938 -0.628906 8.421875 -0.140625 C 8.015625 0.335938 7.445312 0.578125 6.71875 0.578125 Z M 6.71875 0.578125 "/></g></g></g></svg>